<svg width="21" height="20" viewBox="0 0 21 20" fill="none" xmlns="http://www.w3.org/2000/svg">
<path d="M20 6.63443V7.56888C19.9891 7.61447 19.9728 7.65896 19.9683 7.70509C19.9129 8.30092 19.7714 8.87342 19.5725 9.42964C19.1 10.7516 18.3687 11.8955 17.5167 12.9493C15.5856 15.3375 13.2859 17.2314 10.8164 18.8941C10.5943 19.0439 10.3696 19.033 10.1544 18.8729C9.12278 18.1056 8.06791 17.373 7.06698 16.5601C5.48369 15.2746 4.0325 13.8257 2.82425 12.1066C2.13403 11.1249 1.55712 10.0727 1.23947 8.87342C1.13359 8.47349 1.07867 8.05781 1 7.64974C1 7.32469 1 6.99964 1 6.67459C1.01138 6.61598 1.02771 6.55738 1.03315 6.49768C1.14992 5.24904 1.54525 4.11977 2.26367 3.13865C3.15921 1.9166 4.30859 1.16176 5.74839 1.0375C7.47764 0.88881 8.88133 1.62085 9.99409 3.05183C10.1762 3.28571 10.331 3.54456 10.5047 3.80124C10.6269 3.61022 10.7368 3.42355 10.8609 3.24881C10.9896 3.06757 11.1217 2.88632 11.2706 2.72515C12.7421 1.13355 14.4758 0.580582 16.4485 1.32999C18.198 1.99474 19.2534 3.42843 19.7709 5.34671C19.8837 5.76401 19.9258 6.20465 20 6.63443Z" stroke="black" stroke-miterlimit="10"/>
</svg>
