<svg width="35" height="33" viewBox="0 0 35 33" fill="none" xmlns="http://www.w3.org/2000/svg">
<path d="M1 2.06134C1.29713 1.25726 1.8991 0.976382 2.74597 1.00154C3.89852 1.03591 5.0528 1.00992 6.20707 1.00992C7.14898 1.00992 7.55486 1.3017 7.85542 2.18459C8.23218 3.29386 8.61066 4.40313 8.98914 5.5124C9.22291 6.19741 9.47551 6.376 10.2085 6.376C17.3765 6.376 24.5444 6.376 31.7115 6.37768C31.9239 6.37768 32.1448 6.37265 32.3477 6.42295C33.1364 6.61831 33.5337 7.39555 33.2631 8.2055C32.805 9.57469 32.3383 10.9405 31.8734 12.3072C31.1558 14.4167 30.4357 16.5254 29.7172 18.6341C29.4355 19.4617 29.0176 19.7602 28.134 19.7602C23.4227 19.7602 18.7123 19.7602 14.001 19.7602C13.1755 19.7602 12.9734 19.9128 12.7714 20.6892C12.7003 20.9625 12.6215 21.2342 12.5598 21.5092C12.4485 22.0039 12.7302 22.3812 13.2466 22.4357C13.3733 22.4491 13.5026 22.4432 13.6311 22.4432C18.9083 22.4432 24.1848 22.4432 29.4621 22.4466C29.7044 22.4466 29.9596 22.4575 30.1865 22.5312C30.809 22.7325 31.1575 23.3471 31.0599 24.0019C30.9708 24.5989 30.4365 25.0684 29.8029 25.1053C29.7172 25.1103 29.6325 25.1103 29.5468 25.1103C24.1736 25.1103 18.8005 25.112 13.4273 25.1103C11.6488 25.1095 10.2522 24.0145 9.87882 22.3418C9.76065 21.8102 9.79233 21.2811 9.93105 20.7579C10.5741 18.3382 10.5305 18.5142 9.73924 16.1993C8.40515 12.2988 7.08219 8.39499 5.75324 4.49284C5.54602 3.88413 5.27543 3.69548 4.61952 3.69464C3.97816 3.69464 3.33595 3.66864 2.69716 3.70051C1.85286 3.74243 1.27744 3.42214 1 2.62729V2.06217V2.06134Z" stroke="white" stroke-width="2" stroke-miterlimit="10"/>
<path d="M14.6201 29.4063C14.6241 30.8361 13.4916 31.9945 12.0844 32.0001C10.6659 32.0066 9.50938 30.8401 9.51258 29.4071C9.51578 27.9822 10.6555 26.8351 12.0691 26.8335C13.486 26.8327 14.6169 27.9725 14.6201 29.4063Z" stroke="white" stroke-width="2" stroke-miterlimit="10"/>
<path d="M27.3986 26.8335C28.8152 26.8359 29.9428 27.9789 29.9428 29.4128C29.9428 30.8426 28.8088 31.9969 27.4002 32.0001C25.9828 32.0034 24.8296 30.8336 24.8352 29.3998C24.8408 27.9757 25.9844 26.8311 27.3978 26.8335H27.3986Z" stroke="white" stroke-width="2" stroke-miterlimit="10"/>
</svg>
