<svg width="34" height="32" viewBox="0 0 34 32" fill="none" xmlns="http://www.w3.org/2000/svg">
<path d="M33 10.3907V11.9481C32.9817 12.0241 32.9542 12.0983 32.9467 12.1751C32.8533 13.1682 32.615 14.1224 32.28 15.0494C31.4842 17.2526 30.2526 19.1591 28.8176 20.9155C25.5652 24.8959 21.692 28.0523 17.5329 30.8235C17.1587 31.0731 16.7804 31.055 16.4179 30.7882C14.6805 29.5093 12.9039 28.2884 11.2181 26.9335C8.55147 24.791 6.10737 22.3761 4.07242 19.5109C2.90995 17.8748 1.93831 16.1211 1.40332 14.1224C1.22499 13.4558 1.1325 12.763 1 12.0829C1 11.5411 1 10.9994 1 10.4576C1.01917 10.36 1.04667 10.2623 1.05583 10.1628C1.25249 8.08173 1.91831 6.19962 3.12828 4.56442C4.63657 2.52766 6.57236 1.26961 8.99729 1.0625C11.9097 0.814683 14.2738 2.03475 16.1479 4.41972C16.4546 4.80952 16.7154 5.24093 17.0079 5.66873C17.2137 5.35037 17.3987 5.03925 17.6079 4.74802C17.8246 4.44594 18.0471 4.14387 18.2979 3.87525C20.7762 1.22258 23.6961 0.30097 27.0185 1.54998C29.9651 2.6579 31.7425 5.04739 32.6142 8.24452C32.8042 8.94002 32.875 9.67442 33 10.3907Z" stroke="white" stroke-width="2" stroke-miterlimit="10"/>
</svg>
