<svg width="11" height="10" viewBox="0 0 11 10" fill="none" xmlns="http://www.w3.org/2000/svg">
<path d="M5.02447 0.463526C5.17415 0.00287116 5.82585 0.00286996 5.97553 0.463525L6.84708 3.1459C6.91402 3.35191 7.106 3.49139 7.32261 3.49139H10.143C10.6274 3.49139 10.8288 4.1112 10.4369 4.3959L8.15516 6.0537C7.97991 6.18102 7.90658 6.4067 7.97352 6.61271L8.84508 9.29508C8.99475 9.75574 8.46751 10.1388 8.07565 9.8541L5.79389 8.19631C5.61865 8.06898 5.38135 8.06898 5.20611 8.19631L2.92435 9.8541C2.53249 10.1388 2.00525 9.75574 2.15492 9.29508L3.02648 6.61271C3.09342 6.4067 3.02009 6.18102 2.84484 6.0537L0.563082 4.3959C0.171226 4.1112 0.372613 3.49139 0.856974 3.49139H3.67739C3.894 3.49139 4.08598 3.35191 4.15292 3.1459L5.02447 0.463526Z" fill="#FFD900"/>
</svg>
