<svg width="24" height="25" viewBox="0 0 24 25" fill="none" xmlns="http://www.w3.org/2000/svg">
<path d="M16.9879 16.701L16.988 16.701C17.4814 16.143 18.2128 16.0365 18.8385 16.4233L21.3093 17.9506L21.8351 17.1L21.3093 17.9506C22.365 18.6032 22.6144 20.2834 21.7824 21.2241L22.5314 21.8867L21.7824 21.2242L19.9451 23.3014L19.9451 23.3014C19.5794 23.7149 19.2116 23.9186 18.8754 23.9543C17.0542 24.1473 12.232 23.9948 6.97674 18.0531C1.9599 12.3808 1.10869 7.58323 1.00249 5.45833C0.972752 4.86343 1.21513 4.28768 1.64382 3.80298L1.64382 3.80298L3.67377 1.50785C3.67377 1.50784 3.67378 1.50784 3.67378 1.50784C4.32177 0.775212 5.44966 0.804235 6.11398 1.81324C6.11398 1.81324 6.11398 1.81325 6.11398 1.81325L7.7448 4.29031L7.74481 4.29032C8.31154 5.15111 8.22194 6.30954 7.62831 6.98069L7.6283 6.98069L7.25736 7.40008L7.25735 7.4001L8.0064 8.0626C7.25735 7.4001 7.25646 7.4011 7.25558 7.4021L7.25378 7.40416L7.25008 7.4084L7.24231 7.41747C7.23698 7.42377 7.23133 7.43059 7.22539 7.43792C7.21351 7.45258 7.20049 7.46932 7.18659 7.48819C7.15878 7.52593 7.12744 7.57215 7.09464 7.6272C7.02887 7.73759 6.95799 7.8822 6.89811 8.06293C6.77674 8.4292 6.70959 8.91629 6.79324 9.5294C6.95828 10.7391 7.70143 12.3932 9.67892 14.629C11.6426 16.8492 13.1378 17.7383 14.3002 17.941C14.9011 18.0458 15.3908 17.9621 15.7613 17.8051C15.9416 17.7287 16.083 17.6396 16.1881 17.5595C16.2406 17.5196 16.284 17.4819 16.3188 17.449C16.3363 17.4326 16.3516 17.4174 16.3649 17.4036C16.3716 17.3967 16.3777 17.3902 16.3834 17.3841L16.3915 17.3752L16.3953 17.371L16.3971 17.369C16.3979 17.368 16.3988 17.3671 15.7528 16.7956L16.3988 17.367L16.9879 16.701Z" stroke="white" stroke-width="2"/>
</svg>
